<mxfile host="app.diagrams.net" agent="Mozilla/5.0 (Windows NT 10.0; Win64; x64) AppleWebKit/537.36 (KHTML, like Gecko) Chrome/127.0.0.0 Safari/537.36" version="24.7.15">
  <diagram name="Page-1" id="2YBvvXClWsGukQMizWep">
    <mxGraphModel dx="2345" dy="965" grid="1" gridSize="10" guides="1" tooltips="1" connect="1" arrows="1" fold="1" page="1" pageScale="1" pageWidth="850" pageHeight="1100" math="0" shadow="0">
      <root>
        <mxCell id="0" />
        <mxCell id="1" parent="0" />
        <mxCell id="aM9ryv3xv72pqoxQDRHE-5" value="Service" style="shape=umlLifeline;perimeter=lifelinePerimeter;whiteSpace=wrap;html=1;container=0;dropTarget=0;collapsible=0;recursiveResize=0;outlineConnect=0;portConstraint=eastwest;newEdgeStyle={&quot;edgeStyle&quot;:&quot;elbowEdgeStyle&quot;,&quot;elbow&quot;:&quot;vertical&quot;,&quot;curved&quot;:0,&quot;rounded&quot;:0};" parent="1" vertex="1">
          <mxGeometry x="481.42" y="40" width="100" height="880" as="geometry" />
        </mxCell>
        <mxCell id="i3JW0LUrAftlPc-qNG6I-48" value="" style="html=1;points=[[0,0,0,0,5],[0,1,0,0,-5],[1,0,0,0,5],[1,1,0,0,-5]];perimeter=orthogonalPerimeter;outlineConnect=0;targetShapes=umlLifeline;portConstraint=eastwest;newEdgeStyle={&quot;curved&quot;:0,&quot;rounded&quot;:0};" vertex="1" parent="aM9ryv3xv72pqoxQDRHE-5">
          <mxGeometry x="45" y="80" width="10" height="690" as="geometry" />
        </mxCell>
        <mxCell id="aM9ryv3xv72pqoxQDRHE-1" value="Controller" style="shape=umlLifeline;perimeter=lifelinePerimeter;whiteSpace=wrap;html=1;container=0;dropTarget=0;collapsible=0;recursiveResize=0;outlineConnect=0;portConstraint=eastwest;newEdgeStyle={&quot;edgeStyle&quot;:&quot;elbowEdgeStyle&quot;,&quot;elbow&quot;:&quot;vertical&quot;,&quot;curved&quot;:0,&quot;rounded&quot;:0};" parent="1" vertex="1">
          <mxGeometry x="301.42" y="40" width="100" height="880" as="geometry" />
        </mxCell>
        <mxCell id="i3JW0LUrAftlPc-qNG6I-1" value="Thêm hình ảnh/ video vào kho dữ liệu" style="text;html=1;align=center;verticalAlign=middle;whiteSpace=wrap;rounded=0;" vertex="1" parent="1">
          <mxGeometry x="371.42" width="250" height="30" as="geometry" />
        </mxCell>
        <mxCell id="i3JW0LUrAftlPc-qNG6I-3" value="Database" style="shape=umlLifeline;perimeter=lifelinePerimeter;whiteSpace=wrap;html=1;container=0;dropTarget=0;collapsible=0;recursiveResize=0;outlineConnect=0;portConstraint=eastwest;newEdgeStyle={&quot;edgeStyle&quot;:&quot;elbowEdgeStyle&quot;,&quot;elbow&quot;:&quot;vertical&quot;,&quot;curved&quot;:0,&quot;rounded&quot;:0};" vertex="1" parent="1">
          <mxGeometry x="661.42" y="40" width="100" height="880" as="geometry" />
        </mxCell>
        <mxCell id="i3JW0LUrAftlPc-qNG6I-7" value="" style="shape=umlLifeline;perimeter=lifelinePerimeter;whiteSpace=wrap;html=1;container=1;dropTarget=0;collapsible=0;recursiveResize=0;outlineConnect=0;portConstraint=eastwest;newEdgeStyle={&quot;curved&quot;:0,&quot;rounded&quot;:0};participant=umlActor;" vertex="1" parent="1">
          <mxGeometry x="161.42000000000002" y="40" width="20" height="880" as="geometry" />
        </mxCell>
        <mxCell id="i3JW0LUrAftlPc-qNG6I-8" value="Chọn file hình ảnh/video" style="html=1;verticalAlign=bottom;endArrow=block;curved=0;rounded=0;" edge="1" parent="1" target="aM9ryv3xv72pqoxQDRHE-1">
          <mxGeometry width="80" relative="1" as="geometry">
            <mxPoint x="171.42000000000002" y="120" as="sourcePoint" />
            <mxPoint x="321.42" y="120" as="targetPoint" />
          </mxGeometry>
        </mxCell>
        <mxCell id="i3JW0LUrAftlPc-qNG6I-11" value="Kiểm tra dịnh dạng file" style="html=1;verticalAlign=bottom;endArrow=block;curved=0;rounded=0;" edge="1" parent="1">
          <mxGeometry width="80" relative="1" as="geometry">
            <mxPoint x="351.42" y="130" as="sourcePoint" />
            <mxPoint x="531.4200000000001" y="130" as="targetPoint" />
          </mxGeometry>
        </mxCell>
        <mxCell id="i3JW0LUrAftlPc-qNG6I-12" value="alternative" style="shape=umlFrame;whiteSpace=wrap;html=1;pointerEvents=0;" vertex="1" parent="1">
          <mxGeometry x="31.42" y="150" width="710" height="150" as="geometry" />
        </mxCell>
        <mxCell id="i3JW0LUrAftlPc-qNG6I-13" value="" style="endArrow=none;dashed=1;html=1;rounded=0;entryX=1.001;entryY=0.545;entryDx=0;entryDy=0;entryPerimeter=0;exitX=-0.002;exitY=0.554;exitDx=0;exitDy=0;exitPerimeter=0;" edge="1" parent="1" source="i3JW0LUrAftlPc-qNG6I-12" target="i3JW0LUrAftlPc-qNG6I-12">
          <mxGeometry width="50" height="50" relative="1" as="geometry">
            <mxPoint x="61.42" y="232" as="sourcePoint" />
            <mxPoint x="701.42" y="231" as="targetPoint" />
          </mxGeometry>
        </mxCell>
        <mxCell id="i3JW0LUrAftlPc-qNG6I-14" value="[file hợp lệ]" style="text;html=1;align=center;verticalAlign=middle;whiteSpace=wrap;rounded=0;" vertex="1" parent="1">
          <mxGeometry x="51.42" y="240" width="70" height="30" as="geometry" />
        </mxCell>
        <mxCell id="i3JW0LUrAftlPc-qNG6I-15" value="[file không hợp lệ]" style="text;html=1;align=center;verticalAlign=middle;whiteSpace=wrap;rounded=0;" vertex="1" parent="1">
          <mxGeometry x="51.42" y="190" width="100" height="30" as="geometry" />
        </mxCell>
        <mxCell id="i3JW0LUrAftlPc-qNG6I-16" value="Lỗi định dạng" style="html=1;verticalAlign=bottom;endArrow=open;dashed=1;endSize=8;curved=0;rounded=0;" edge="1" parent="1" target="i3JW0LUrAftlPc-qNG6I-47">
          <mxGeometry relative="1" as="geometry">
            <mxPoint x="531.4200000000001" y="170" as="sourcePoint" />
            <mxPoint x="361.42" y="170" as="targetPoint" />
          </mxGeometry>
        </mxCell>
        <mxCell id="i3JW0LUrAftlPc-qNG6I-17" value="Thông báo lỗi định dạng" style="html=1;verticalAlign=bottom;endArrow=open;dashed=1;endSize=8;curved=0;rounded=0;" edge="1" parent="1">
          <mxGeometry relative="1" as="geometry">
            <mxPoint x="351.42" y="189.17" as="sourcePoint" />
            <mxPoint x="171.42000000000002" y="189.17" as="targetPoint" />
          </mxGeometry>
        </mxCell>
        <mxCell id="i3JW0LUrAftlPc-qNG6I-19" value="Định dạng phù hợp" style="html=1;verticalAlign=bottom;endArrow=open;dashed=1;endSize=8;curved=0;rounded=0;" edge="1" parent="1">
          <mxGeometry relative="1" as="geometry">
            <mxPoint x="531.4200000000001" y="259.58" as="sourcePoint" />
            <mxPoint x="351.42" y="259.58" as="targetPoint" />
          </mxGeometry>
        </mxCell>
        <mxCell id="i3JW0LUrAftlPc-qNG6I-21" value="Thêm file hình ảnh/video&amp;nbsp;&lt;div&gt;vào kho dữ liệu&lt;/div&gt;" style="html=1;verticalAlign=bottom;endArrow=block;curved=0;rounded=0;" edge="1" parent="1">
          <mxGeometry width="80" relative="1" as="geometry">
            <mxPoint x="171.42000000000002" y="360" as="sourcePoint" />
            <mxPoint x="351.42" y="360" as="targetPoint" />
          </mxGeometry>
        </mxCell>
        <mxCell id="i3JW0LUrAftlPc-qNG6I-22" value="Kiểm tra sự tồn tại của file" style="html=1;verticalAlign=bottom;endArrow=block;curved=0;rounded=0;" edge="1" parent="1">
          <mxGeometry width="80" relative="1" as="geometry">
            <mxPoint x="351.42" y="380" as="sourcePoint" />
            <mxPoint x="531.4200000000001" y="380" as="targetPoint" />
          </mxGeometry>
        </mxCell>
        <mxCell id="i3JW0LUrAftlPc-qNG6I-23" value="alternative" style="shape=umlFrame;whiteSpace=wrap;html=1;pointerEvents=0;" vertex="1" parent="1">
          <mxGeometry x="31.42" y="420" width="710" height="290" as="geometry" />
        </mxCell>
        <mxCell id="i3JW0LUrAftlPc-qNG6I-24" value="" style="endArrow=none;dashed=1;html=1;rounded=0;exitX=-0.001;exitY=0.453;exitDx=0;exitDy=0;exitPerimeter=0;entryX=0.998;entryY=0.57;entryDx=0;entryDy=0;entryPerimeter=0;" edge="1" parent="1">
          <mxGeometry width="50" height="50" relative="1" as="geometry">
            <mxPoint x="31.42" y="510" as="sourcePoint" />
            <mxPoint x="740.0000000000003" y="511.20000000000005" as="targetPoint" />
          </mxGeometry>
        </mxCell>
        <mxCell id="i3JW0LUrAftlPc-qNG6I-25" value="Kiểm tra sự tồn tại của file" style="html=1;verticalAlign=bottom;endArrow=block;curved=0;rounded=0;" edge="1" parent="1">
          <mxGeometry width="80" relative="1" as="geometry">
            <mxPoint x="531.4200000000001" y="410" as="sourcePoint" />
            <mxPoint x="711.42" y="410" as="targetPoint" />
          </mxGeometry>
        </mxCell>
        <mxCell id="i3JW0LUrAftlPc-qNG6I-26" value="File đã có trong kho dữ liệu" style="html=1;verticalAlign=bottom;endArrow=open;dashed=1;endSize=8;curved=0;rounded=0;" edge="1" parent="1">
          <mxGeometry relative="1" as="geometry">
            <mxPoint x="711.42" y="440" as="sourcePoint" />
            <mxPoint x="531.4200000000001" y="440" as="targetPoint" />
          </mxGeometry>
        </mxCell>
        <mxCell id="i3JW0LUrAftlPc-qNG6I-27" value="Bỏ tích File đã chọn và&amp;nbsp;&lt;div&gt;thông báo File đã có&amp;nbsp;&lt;div&gt;trong kho dữ liệu&lt;/div&gt;&lt;/div&gt;" style="html=1;verticalAlign=bottom;endArrow=open;dashed=1;endSize=8;curved=0;rounded=0;" edge="1" parent="1">
          <mxGeometry relative="1" as="geometry">
            <mxPoint x="531.4200000000001" y="470" as="sourcePoint" />
            <mxPoint x="351.42" y="470" as="targetPoint" />
          </mxGeometry>
        </mxCell>
        <mxCell id="i3JW0LUrAftlPc-qNG6I-28" value="Hiển thị thông báo file đã tồn tại" style="html=1;verticalAlign=bottom;endArrow=open;dashed=1;endSize=8;curved=0;rounded=0;" edge="1" parent="1">
          <mxGeometry relative="1" as="geometry">
            <mxPoint x="351.42" y="480" as="sourcePoint" />
            <mxPoint x="171.42000000000002" y="480" as="targetPoint" />
          </mxGeometry>
        </mxCell>
        <mxCell id="i3JW0LUrAftlPc-qNG6I-29" value="[Files đã chọn có trong kho dữ liệu]" style="text;html=1;align=center;verticalAlign=middle;whiteSpace=wrap;rounded=0;" vertex="1" parent="1">
          <mxGeometry x="41.42" y="460" width="100" height="30" as="geometry" />
        </mxCell>
        <mxCell id="i3JW0LUrAftlPc-qNG6I-30" value="File chưa tồn tại" style="html=1;verticalAlign=bottom;endArrow=open;dashed=1;endSize=8;curved=0;rounded=0;" edge="1" parent="1" source="i3JW0LUrAftlPc-qNG6I-51">
          <mxGeometry relative="1" as="geometry">
            <mxPoint x="701.42" y="540" as="sourcePoint" />
            <mxPoint x="541.4200000000001" y="540" as="targetPoint" />
          </mxGeometry>
        </mxCell>
        <mxCell id="i3JW0LUrAftlPc-qNG6I-31" value="" style="endArrow=none;dashed=1;html=1;rounded=0;exitX=-0.001;exitY=0.453;exitDx=0;exitDy=0;exitPerimeter=0;entryX=0.998;entryY=0.57;entryDx=0;entryDy=0;entryPerimeter=0;" edge="1" parent="1">
          <mxGeometry width="50" height="50" relative="1" as="geometry">
            <mxPoint x="31.42" y="600" as="sourcePoint" />
            <mxPoint x="740.0000000000003" y="601.2" as="targetPoint" />
          </mxGeometry>
        </mxCell>
        <mxCell id="i3JW0LUrAftlPc-qNG6I-32" value="[Files đã chọn không có trong kho dữ liệu]" style="text;html=1;align=center;verticalAlign=middle;whiteSpace=wrap;rounded=0;" vertex="1" parent="1">
          <mxGeometry x="41.42" y="535" width="100" height="30" as="geometry" />
        </mxCell>
        <mxCell id="i3JW0LUrAftlPc-qNG6I-33" value="&lt;font style=&quot;font-size: 12px;&quot;&gt;[&lt;span style=&quot;line-height: 115%; font-family: &amp;quot;Times New Roman&amp;quot;, serif;&quot; lang=&quot;EN-US&quot;&gt;Files được chọn gồm files đã có và files chưa có&lt;br/&gt;trong kho dữ liệu&lt;/span&gt;]&lt;/font&gt;" style="text;html=1;align=center;verticalAlign=middle;whiteSpace=wrap;rounded=0;" vertex="1" parent="1">
          <mxGeometry x="36.42" y="610" width="130" height="60" as="geometry" />
        </mxCell>
        <mxCell id="i3JW0LUrAftlPc-qNG6I-34" value="Files có chứa các file đã tồn tại&lt;div&gt;&amp;nbsp;và các file chưa tồn tại&lt;/div&gt;" style="html=1;verticalAlign=bottom;endArrow=open;dashed=1;endSize=8;curved=0;rounded=0;" edge="1" parent="1" source="i3JW0LUrAftlPc-qNG6I-51">
          <mxGeometry relative="1" as="geometry">
            <mxPoint x="711.42" y="639.5699999999999" as="sourcePoint" />
            <mxPoint x="541.4200000000001" y="640" as="targetPoint" />
          </mxGeometry>
        </mxCell>
        <mxCell id="i3JW0LUrAftlPc-qNG6I-38" value="Bỏ tích File đã tồn tại và&amp;nbsp;&lt;div&gt;thông báo có các File đã tồn tại&lt;div&gt;trong kho dữ liệu&lt;/div&gt;&lt;/div&gt;" style="html=1;verticalAlign=bottom;endArrow=open;dashed=1;endSize=8;curved=0;rounded=0;" edge="1" parent="1">
          <mxGeometry relative="1" as="geometry">
            <mxPoint x="531.4200000000001" y="660" as="sourcePoint" />
            <mxPoint x="351.42" y="660" as="targetPoint" />
          </mxGeometry>
        </mxCell>
        <mxCell id="i3JW0LUrAftlPc-qNG6I-39" value="Hiển thị thông báo file đã tồn tại" style="html=1;verticalAlign=bottom;endArrow=open;dashed=1;endSize=8;curved=0;rounded=0;" edge="1" parent="1">
          <mxGeometry relative="1" as="geometry">
            <mxPoint x="351.42" y="680" as="sourcePoint" />
            <mxPoint x="171.42000000000002" y="680" as="targetPoint" />
          </mxGeometry>
        </mxCell>
        <mxCell id="i3JW0LUrAftlPc-qNG6I-42" value="Thêm thành công" style="html=1;verticalAlign=bottom;endArrow=open;dashed=1;endSize=8;curved=0;rounded=0;" edge="1" parent="1">
          <mxGeometry relative="1" as="geometry">
            <mxPoint x="706.42" y="780" as="sourcePoint" />
            <mxPoint x="536.4200000000001" y="780" as="targetPoint" />
          </mxGeometry>
        </mxCell>
        <mxCell id="i3JW0LUrAftlPc-qNG6I-43" value="Cập nhật hình ảnh/ video&amp;nbsp;&lt;div&gt;trong kho dữ liệu&lt;/div&gt;&lt;div&gt;Cập nhật thanh dung lượng&lt;/div&gt;" style="html=1;verticalAlign=bottom;endArrow=open;dashed=1;endSize=8;curved=0;rounded=0;" edge="1" parent="1">
          <mxGeometry relative="1" as="geometry">
            <mxPoint x="531.4200000000001" y="800" as="sourcePoint" />
            <mxPoint x="351.42" y="800" as="targetPoint" />
          </mxGeometry>
        </mxCell>
        <mxCell id="i3JW0LUrAftlPc-qNG6I-44" value="Thông báo thêm thành công" style="html=1;verticalAlign=bottom;endArrow=open;dashed=1;endSize=8;curved=0;rounded=0;" edge="1" parent="1">
          <mxGeometry relative="1" as="geometry">
            <mxPoint x="351.42" y="870" as="sourcePoint" />
            <mxPoint x="171.42000000000002" y="870" as="targetPoint" />
          </mxGeometry>
        </mxCell>
        <mxCell id="i3JW0LUrAftlPc-qNG6I-45" value="Cho phép người dùng tiếp tục" style="html=1;verticalAlign=bottom;endArrow=open;dashed=1;endSize=8;curved=0;rounded=0;" edge="1" parent="1">
          <mxGeometry relative="1" as="geometry">
            <mxPoint x="351.42" y="280" as="sourcePoint" />
            <mxPoint x="171.42000000000002" y="280" as="targetPoint" />
          </mxGeometry>
        </mxCell>
        <mxCell id="i3JW0LUrAftlPc-qNG6I-47" value="" style="html=1;points=[[0,0,0,0,5],[0,1,0,0,-5],[1,0,0,0,5],[1,1,0,0,-5]];perimeter=orthogonalPerimeter;outlineConnect=0;targetShapes=umlLifeline;portConstraint=eastwest;newEdgeStyle={&quot;curved&quot;:0,&quot;rounded&quot;:0};" vertex="1" parent="1">
          <mxGeometry x="346.42" y="110" width="10" height="770" as="geometry" />
        </mxCell>
        <mxCell id="i3JW0LUrAftlPc-qNG6I-51" value="" style="html=1;points=[[0,0,0,0,5],[0,1,0,0,-5],[1,0,0,0,5],[1,1,0,0,-5]];perimeter=orthogonalPerimeter;outlineConnect=0;targetShapes=umlLifeline;portConstraint=eastwest;newEdgeStyle={&quot;curved&quot;:0,&quot;rounded&quot;:0};" vertex="1" parent="1">
          <mxGeometry x="706.42" y="400" width="10" height="390" as="geometry" />
        </mxCell>
        <mxCell id="i3JW0LUrAftlPc-qNG6I-40" value="Thêm các file được tích&amp;nbsp;&lt;div&gt;vào kho dữ liệu&lt;/div&gt;" style="html=1;verticalAlign=bottom;endArrow=block;curved=0;rounded=0;" edge="1" parent="1" source="i3JW0LUrAftlPc-qNG6I-48">
          <mxGeometry width="80" relative="1" as="geometry">
            <mxPoint x="546.42" y="750" as="sourcePoint" />
            <mxPoint x="706.42" y="750" as="targetPoint" />
          </mxGeometry>
        </mxCell>
      </root>
    </mxGraphModel>
  </diagram>
</mxfile>
